<svg id="Layer_1" data-name="Layer 1" xmlns="http://www.w3.org/2000/svg" viewBox="0 0 205 50"><defs><style>.cls-1{fill:#fff;}.cls-2{fill:#326893;}</style></defs><title>pgAdmin</title><path class="cls-1" d="M58.94,41.4a2.48,2.48,0,0,1-2.27-3.49L64,21.29V6a6,6,0,0,0-6-6H6A6,6,0,0,0,0,6V44a6,6,0,0,0,6,6H58a6,6,0,0,0,6-6V41.4Z"/><path class="cls-2" d="M29.25,30.17a13.13,13.13,0,0,1-1.82-6.93,13,13,0,0,1,1.82-6.88,12.5,12.5,0,0,1,1.48-1.95,10.44,10.44,0,0,0-3.25-2.89,11.16,11.16,0,0,0-5.65-1.45q-4.48,0-6.72,2.64V10.44H7.51V40.36a1,1,0,0,0,1,1h6a1,1,0,0,0,1-1V31.19a8.47,8.47,0,0,0,6.34,2.4,11.26,11.26,0,0,0,5.65-1.45,10.53,10.53,0,0,0,2.06-1.56C29.44,30.44,29.34,30.31,29.25,30.17ZM23.6,25.8a4.52,4.52,0,0,1-3.45,1.44,4.48,4.48,0,0,1-3.44-1.44,5.6,5.6,0,0,1-1.35-4,5.59,5.59,0,0,1,1.35-4,4.46,4.46,0,0,1,3.44-1.45,4.49,4.49,0,0,1,3.45,1.45,5.63,5.63,0,0,1,1.34,4A5.64,5.64,0,0,1,23.6,25.8Z"/><path class="cls-2" d="M56.49,12.63V31.24q0,6.35-3.44,9.51t-9.92,3.17a25.42,25.42,0,0,1-6.3-.75,15,15,0,0,1-5-2.23l2.89-5.59a10.17,10.17,0,0,0,3.51,1.79,14.37,14.37,0,0,0,4.18.65A6.53,6.53,0,0,0,47,36.4a5.37,5.37,0,0,0,1.47-4.11v-.76c-1.54,1.8-3.79,2.69-6.76,2.69a11.7,11.7,0,0,1-5.59-1.36A10.37,10.37,0,0,1,32.09,29a10.89,10.89,0,0,1-1.51-5.77,10.86,10.86,0,0,1,1.51-5.74,10.42,10.42,0,0,1,4.07-3.86,11.71,11.71,0,0,1,5.59-1.37c3.25,0,5.63,1.06,7.14,3.15V12.63Zm-9.3,13.95a4.4,4.4,0,0,0,1.4-3.36,4.34,4.34,0,0,0-1.38-3.34,5.65,5.65,0,0,0-7.16,0,4.3,4.3,0,0,0-1.41,3.34,4.35,4.35,0,0,0,1.43,3.36,5.08,5.08,0,0,0,3.57,1.3A5,5,0,0,0,47.19,26.58Z"/><path class="cls-1" d="M83.43,32.89H71l-2,5.09a1,1,0,0,1-.93.62H61.73a1,1,0,0,1-.91-1.4L72.91,9.8a1,1,0,0,1,.92-.6h6.89a1,1,0,0,1,.91.6L93.77,37.2a1,1,0,0,1-.92,1.4H86.41a1,1,0,0,1-.93-.62ZM81,26.76l-3.78-9.41-3.78,9.41Z"/><path class="cls-1" d="M120.44,8.44V37.6a1,1,0,0,1-1,1h-5.6a1,1,0,0,1-1-1V36.33Q110.62,39,106.16,39a11.29,11.29,0,0,1-5.67-1.45,10.54,10.54,0,0,1-4-4.14A12.62,12.62,0,0,1,95,27.18,12.53,12.53,0,0,1,96.44,21a10.35,10.35,0,0,1,4-4.09,11.48,11.48,0,0,1,5.67-1.43,8.24,8.24,0,0,1,6.3,2.35V8.44a1,1,0,0,1,1-1h6A1,1,0,0,1,120.44,8.44Zm-9.19,22.75a5.71,5.71,0,0,0,1.34-4,5.6,5.6,0,0,0-1.32-3.95,4.47,4.47,0,0,0-3.43-1.43,4.53,4.53,0,0,0-3.44,1.43,5.51,5.51,0,0,0-1.34,3.95,5.67,5.67,0,0,0,1.34,4,4.77,4.77,0,0,0,6.85,0Z"/><path class="cls-1" d="M161,18c1.66,1.68,2.5,4.21,2.5,7.6v12a1,1,0,0,1-1,1h-6a1,1,0,0,1-1-1V26.88a5.67,5.67,0,0,0-.9-3.53,3.09,3.09,0,0,0-2.55-1.13,3.62,3.62,0,0,0-2.89,1.26,5.71,5.71,0,0,0-1.1,3.82V37.6a1,1,0,0,1-1,1h-6a1,1,0,0,1-1-1V26.88c0-3.11-1.14-4.66-3.44-4.66a3.7,3.7,0,0,0-2.94,1.26,5.71,5.71,0,0,0-1.09,3.82V37.6a1,1,0,0,1-1,1h-6a1,1,0,0,1-1-1V16.84a1,1,0,0,1,1-1h5.6a1,1,0,0,1,1,1v1.39a8,8,0,0,1,3-2.08,10.23,10.23,0,0,1,3.8-.69,10,10,0,0,1,4.29.88A7.28,7.28,0,0,1,146.42,19a8.85,8.85,0,0,1,3.41-2.65,10.93,10.93,0,0,1,4.49-.92A9,9,0,0,1,161,18Z"/><path class="cls-1" d="M168.12,12.1a3.91,3.91,0,0,1-1.34-2.79A4.16,4.16,0,0,1,168,6.19a5,5,0,0,1,3.67-1.36A5.25,5.25,0,0,1,175.18,6a3.75,3.75,0,0,1,1.34,3,4.1,4.1,0,0,1-1.34,3.13,5.68,5.68,0,0,1-7.06,0Zm.54,3.74h6a1,1,0,0,1,1,1V37.6a1,1,0,0,1-1,1h-6a1,1,0,0,1-1-1V16.84A1,1,0,0,1,168.66,15.84Z"/><path class="cls-1" d="M201.55,18q2.59,2.52,2.59,7.6v12a1,1,0,0,1-1,1h-6a1,1,0,0,1-1-1V26.88q0-4.66-3.74-4.66a4.3,4.3,0,0,0-3.3,1.34,5.83,5.83,0,0,0-1.24,4v10a1,1,0,0,1-1,1h-6a1,1,0,0,1-1-1V16.84a1,1,0,0,1,1-1h5.61a1,1,0,0,1,1,1v1.47a9.05,9.05,0,0,1,3.19-2.12,10.78,10.78,0,0,1,4-.73A9.34,9.34,0,0,1,201.55,18Z"/></svg>