<svg xmlns="http://www.w3.org/2000/svg" height="100" width="93.37" viewBox="0 0 74.696 80"><path d="M54.575 0a34.967 34.967 0 00-7.05.8c-.858.187-1.545.372-1.975.5-.215.064-.365.11-.475.15-.027.01-.042.012-.075.025l-.05.025c-.008-.002-.017.002-.025 0a27.096 27.096 0 00-5.724-.7c-4.068-.062-7.323.95-9.85 2.55-1.257-.451-6.108-2.102-11.775-2.35a29.126 29.126 0 00-2.824.025c-3.802.203-7.706 1.248-10.55 4.05s-4.505 7.258-4.15 13.85c.082 1.549.638 4.762 1.6 8.75.96 3.988 2.312 8.67 3.974 12.875 1.662 4.205 3.582 7.912 5.975 10.075 1.197 1.082 2.616 1.812 4.175 1.75 1.56-.061 3.042-.91 4.375-2.4a143.655 143.655 0 016.3-6.625c1.375.688 2.91 1.114 4.525 1.15.003.034-.002.067 0 .1-.934 1.02-1.375 1.642-1.825 1.976-.523.388-1.38.706-3.825 1.175-1.347.258-2.225.538-2.9 1.05-.337.255-.641.611-.75 1.05s.015.904.2 1.225c.372.64.928.958 1.5 1.25a7.785 7.785 0 001.75.65c1.25.29 3.356.647 5.7.275 1.73-.276 3.609-.976 5.275-2.376-.023 2.845.016 5.581.125 7.95.08 1.739.195 3.291.35 4.55s.311 2.195.625 2.925c.455 1.057 1.215 2.775 2.875 4.075 1.661 1.301 4.243 2.054 7.775 1.35 2.856-.569 4.973-1.448 6.476-2.9 1.502-1.451 2.273-3.387 2.724-5.824.535-2.88 1.42-9.441 1.825-12.976.008.003.018-.002.025 0 .971.28 2.138.363 3.375.35 2.475-.025 5.255-.46 7.2-1.3 2.194-.947 3.91-2.086 4.776-3.3.216-.303.404-.635.45-1.075.045-.44-.196-1.046-.625-1.35-.86-.608-1.696-.442-2.825-.225-4.49.862-6.74.53-7.725.15a2.741 2.741 0 01-.55-.275c4.726-6.686 8.098-14.126 9.874-20.525.917-3.297 1.41-6.307 1.45-8.825.042-2.518-.296-4.575-1.474-5.975C67.588 1.451 60.289-.049 54.577 0zm0 2.125c5.28-.046 11.733 1.246 16.45 6.85.58.69 1.038 2.346 1 4.625-.038 2.279-.518 5.15-1.4 8.325C68.987 27.822 65.917 34.746 61.65 41c-.132-.15-.264-.294-.4-.45 1.622-2.498 1.922-5.035 1.8-7.35-.13-2.46-.667-4.707-.6-6.625.09-2.651.855-4.515.75-7.3.004-.015.021-.036.025-.05.054-.212.032-.327.025-.45a3.704 3.704 0 00-.125-.75c-.144-.55-.4-1.237-.775-2.075a26.4 26.4 0 00-3.85-6.101c-2.255-2.68-5.455-5.378-9.7-7.125a32.04 32.04 0 015.775-.6zm-15.4.825c8.558.13 14.08 4.159 17.5 8.225 1.71 2.033 2.874 4.063 3.55 5.575.2.446.283.714.4 1.05-4.037-.38-6.715.292-8.25 1.925-1.731 1.842-1.65 4.453-.974 6.975.676 2.521 1.977 5.114 3.175 7.25.598 1.068 1.171 2.019 1.625 2.775.453.756.8 1.358.875 1.525.691 1.559 1.582 2.661 2.275 3.475.357.42.63.761.825 1.025a7.093 7.093 0 00-.875.3c-.65.272-1.39.773-1.875 1.6-.462.785-.68 1.825-.626 3.15a1.145 1.064 0 000 .05c-.145 1.796-1.382 11.471-2 14.8-.412 2.22-1.048 3.684-2.125 4.724-1.077 1.041-2.685 1.754-5.3 2.275-3.017.601-4.674.002-5.825-.9-1.151-.901-1.79-2.238-2.225-3.25-.13-.304-.354-1.193-.5-2.375-.146-1.18-.247-2.67-.326-4.373-.157-3.41-.176-7.647-.05-11.85a1.144 1.064 0 00-.074-.451 4.257 4.257 0 00-.225-.85c-.43-1.078-1.236-2.001-2.4-2.45-.38-.146-1.033-.416-1.85-.35-.148.012-.3.065-.45.1.237-.91.657-1.99 1.15-3.225 1.158-2.894 4.296-6.746 1.9-17.05-.5-2.146-1.88-3.55-3.55-4.15-.835-.299-1.718-.424-2.6-.424-.883 0-1.77.116-2.625.3-1.71.366-3.309.995-4.525 1.625-.011.005-.014.02-.025.025.17-1.92.593-4.775 1.75-7.625.996-2.454 2.492-4.852 4.75-6.6s5.268-2.89 9.5-2.825zM16.7 3.125c4.256.078 8.373 1.123 10.6 1.8-2.135 1.942-3.566 4.337-4.525 6.7-2.154 5.307-2.029 10.534-2.025 10.675v.05a1.15 1.07 0 00.025.2c.016.71.112 1.773.15 3.35.042 1.73.002 3.913-.35 6.25-.602 4.006 1.087 7.72 3.95 10-.795.782-3.145 3.114-6.15 6.475-1.085 1.213-1.963 1.596-2.7 1.625-.737.029-1.546-.311-2.474-1.15-1.857-1.678-3.815-5.226-5.425-9.3-1.611-4.075-2.931-8.682-3.875-12.6s-1.512-7.224-1.575-8.4C1.99 12.58 3.525 8.84 5.85 6.55c2.326-2.291 5.586-3.216 9.025-3.4a25.48 25.48 0 011.825-.025zm42.15 16.7a22.1 22.1 0 012.075.15c-.042 2.095-.657 3.817-.75 6.525-.08 2.305.483 4.576.6 6.8.096 1.798-.078 3.543-.975 5.3a10.26 10.26 0 01-.6-1.15c-.203-.458-.545-.992-1-1.75s-.995-1.69-1.575-2.725c-1.159-2.068-2.403-4.552-3-6.775-.596-2.223-.515-4.048.45-5.075.724-.77 2.161-1.349 4.775-1.3zm-28.5.375c.663 0 1.265.067 1.775.25 1.02.366 1.776 1.015 2.15 2.625 2.293 9.86-.44 12.387-1.825 15.85-.474 1.19-.961 2.313-1.25 3.425-4.963-.008-9.188-4.489-8.375-9.9.375-2.491.444-4.795.4-6.6-.04-1.647-.157-2.76-.175-3.225.032-.027.032-.018.075-.05.248-.188.68-.456 1.2-.725 1.039-.538 2.484-1.116 3.925-1.425.72-.155 1.438-.226 2.1-.225zm27.125.625a4.936 4.936 0 00-.725.05c-.5.065-.948.205-1.275.375-.163.085-.3.164-.4.275s-.146.252-.125.4c.022.142.087.27.2.4s.269.26.45.375c.363.229.862.395 1.4.325.539-.07.98-.361 1.3-.675.16-.157.288-.319.375-.475.083-.148.14-.279.125-.425v-.025c-.022-.148-.122-.268-.25-.35s-.293-.135-.475-.175a3.052 3.052 0 00-.6-.075zm-26.975.55c-.235.006-.452.032-.65.076s-.394.099-.55.2a.785.785 0 00-.175.15h-.1l-.05.325c-.034.221.028.375.125.55s.253.357.425.525c.344.335.829.648 1.425.725.595.077 1.132-.128 1.525-.375.197-.124.349-.254.475-.4s.245-.279.275-.475c.031-.21-.08-.414-.2-.55s-.272-.233-.45-.325a4 4 0 00-1.325-.4 4.91 4.91 0 00-.75-.025zm31 23.25c.302.229.676.443 1.15.625 1.64.632 4.31.859 9.05-.05a13.56 13.56 0 01-3.2 1.95c-1.422.614-4.078 1.078-6.25 1.1-1.086.01-2.065-.081-2.65-.25a1.656 1.656 0 01-.5-.225c-.053-1.098.111-1.736.325-2.1.22-.376.48-.53.825-.675.345-.145.748-.21 1.25-.375zm-27.4.3c.181-.015.415.037.775.175.369.142.89.659 1.125 1.25.118.296.164.567.15.825v.025c-.018.249-.087.47-.225.65-1.66 2.16-3.607 3.003-5.475 3.3-1.868.297-3.656.005-4.75-.25a5.842 5.842 0 01-1.225-.45c-.152-.077-.152-.076-.25-.15a6.957 6.957 0 011.575-.475c2.537-.486 3.797-.85 4.775-1.575.978-.725 1.388-1.517 2.575-2.75.504-.524.769-.56.95-.575z"/></svg>